<?xml version="1.0" standalone="no"?>
<!DOCTYPE svg PUBLIC "-//W3C//DTD SVG 20010904//EN"
 "http://www.w3.org/TR/2001/REC-SVG-20010904/DTD/svg10.dtd">
<svg version="1.0" xmlns="http://www.w3.org/2000/svg"
 width="600.000000pt" height="360.000000pt" viewBox="0 0 600.000000 360.000000"
 preserveAspectRatio="xMidYMid meet">
<metadata>
Created by potrace 1.16, written by Peter Selinger 2001-2019
</metadata>
<g transform="translate(0.000000,360.000000) scale(0.100000,-0.100000)"
fill="#000000" stroke="none">
<path d="M1468 3454 l5 -46 -102 -100 c-55 -55 -101 -102 -101 -104 0 -2 307
-4 682 -4 l683 0 -104 104 -103 104 3 45 4 45 -36 -29 c-20 -16 -48 -33 -63
-39 -17 -6 -164 -10 -387 -10 -387 0 -393 1 -455 53 l-32 27 6 -46z"/>
<path d="M1243 3090 l-42 -40 746 0 747 0 -39 40 -39 40 -666 0 -665 -1 -42
-39z"/>
<path d="M4543 3029 c-52 -26 -93 -72 -93 -105 0 -33 23 -85 47 -107 20 -17
20 -17 15 31 -6 64 11 79 72 63 25 -6 70 -11 100 -11 l55 0 11 -42 c6 -24 13
-47 14 -53 5 -14 25 39 37 97 15 66 -1 94 -71 124 -69 29 -132 30 -187 3z"/>
<path d="M1908 2968 l-33 -63 -332 -5 -333 -5 -42 -42 -43 -43 343 0 c232 0
342 -3 342 -10 0 -27 -34 -72 -61 -82 -16 -5 -29 -13 -29 -16 0 -4 -114 -6
-252 -4 l-253 2 -42 -40 c-24 -23 -43 -43 -43 -45 0 -3 84 -5 188 -5 124 0
182 -4 172 -10 -11 -7 -2 -10 33 -10 l47 0 0 -90 c0 -116 18 -118 22 -2 l3 87
108 3 107 3 1 -43 c1 -24 2 -56 4 -73 1 -16 3 -38 4 -47 0 -10 6 -18 11 -18 6
0 10 37 10 90 l0 90 110 0 110 0 0 -90 c0 -53 4 -90 10 -90 6 0 10 37 10 90
l0 90 110 0 110 0 1 -32 c1 -18 0 -39 -1 -47 -4 -28 11 -101 21 -101 5 0 9 41
9 90 l0 90 48 0 c34 0 43 3 32 10 -10 6 48 10 175 10 l189 0 -44 45 -44 45
-247 0 c-197 0 -254 3 -283 15 -21 9 -36 11 -36 5 0 -5 10 -10 22 -10 12 0 19
-3 15 -6 -3 -4 -18 -3 -32 0 -21 5 -25 11 -20 27 4 11 0 30 -9 44 -9 13 -16
27 -16 30 0 3 156 5 348 5 l347 1 -48 44 -49 45 -326 0 -327 0 -34 65 c-19 36
-38 65 -42 65 -5 0 -23 -28 -41 -62z m97 -66 c26 -48 59 -106 72 -129 23 -40
24 -43 6 -43 -13 0 -26 15 -41 45 -28 57 -47 58 -48 4 -1 -23 -8 -46 -15 -51
-10 -6 -7 -7 9 -3 14 4 22 2 22 -6 0 -8 11 -10 35 -6 21 3 33 2 30 -4 -8 -12
-62 -12 -70 1 -4 7 -13 7 -25 0 -11 -6 -31 -7 -46 -4 -24 6 -25 8 -8 17 13 7
19 7 22 -1 9 -28 19 -8 21 43 2 50 0 55 -18 55 -18 0 -21 -6 -21 -44 0 -42 -2
-45 -31 -51 -21 -5 -27 -10 -19 -15 7 -5 2 -7 -15 -7 -18 0 -23 2 -14 8 9 5 5
10 -15 15 -21 5 -31 3 -38 -10 -5 -9 -21 -16 -36 -16 l-27 0 32 16 c26 13 48
44 105 149 40 73 76 131 80 129 3 -2 27 -43 53 -92z"/>
<path d="M844 2970 c-35 -14 -41 -32 -8 -24 66 17 134 4 134 -26 0 -11 5 -20
10 -20 6 0 10 -9 10 -20 0 -11 7 -23 15 -26 18 -7 30 -49 55 -192 29 -167 27
-201 -12 -239 -39 -36 -85 -47 -112 -27 -11 8 -26 14 -33 14 -7 0 -22 9 -33
20 -30 30 -60 26 -73 -9 -6 -17 -21 -32 -33 -35 -54 -14 -69 -61 -32 -96 20
-18 35 -20 176 -20 l154 0 -4 68 c-2 54 0 67 12 67 12 0 14 -13 12 -67 -4 -65
-3 -68 19 -68 21 0 22 2 15 70 l-6 70 50 0 c44 0 50 3 50 20 0 32 -43 47 -74
27 -30 -20 -32 -18 -41 58 -11 103 -44 279 -60 324 -23 67 -20 79 13 48 15
-15 34 -27 41 -27 7 0 10 -3 8 -7 -3 -5 -1 -17 4 -28 6 -17 8 -16 8 8 1 36
-47 87 -82 87 -14 0 -28 7 -31 16 -4 9 -9 14 -12 11 -4 -3 -24 3 -45 13 -41
22 -62 24 -95 10z"/>
<path d="M3587 2939 c-44 -23 -77 -71 -77 -113 0 -15 12 -51 28 -79 l27 -50 5
39 c7 49 11 55 59 88 37 26 42 27 78 15 49 -17 68 -33 84 -71 l13 -31 12 34
c28 77 3 148 -61 175 -48 20 -123 17 -168 -7z"/>
<path d="M3569 2553 l-14 -96 -38 -11 c-23 -6 -35 -15 -30 -20 5 -5 3 -6 -5
-2 -8 5 -24 -4 -43 -23 -29 -30 -40 -59 -17 -45 7 4 8 3 4 -5 -4 -6 -11 -9
-16 -6 -8 5 -40 -88 -55 -162 -7 -35 -9 -34 71 -47 31 -5 32 -4 32 35 1 92 29
122 190 210 l43 24 -28 9 c-15 5 -35 15 -44 22 -9 8 -19 11 -22 7 -4 -3 -2 8
4 25 6 18 8 40 5 48 -4 9 -1 23 5 30 6 8 8 21 4 31 -5 10 -7 22 -6 26 1 4 -5
17 -12 28 -12 17 -15 9 -28 -78z"/>
<path d="M1892 2489 l3 -81 53 -2 52 -1 0 83 0 82 -55 0 -56 0 3 -81z"/>
<path d="M2902 2448 c-2 -43 -11 -47 -37 -18 -10 11 -29 20 -42 20 -13 0 -33
5 -44 11 -15 7 -28 6 -51 -5 -17 -9 -33 -14 -37 -12 -4 3 -7 -4 -7 -15 0 -17
8 -19 78 -19 l78 0 0 -70 0 -71 158 2 c134 1 160 3 179 18 38 31 34 77 -8 95
-17 7 -36 24 -43 37 -15 31 -50 36 -73 10 -9 -12 -24 -21 -32 -21 -8 0 -22 -7
-31 -15 -11 -10 -27 -13 -48 -9 -29 6 -31 10 -35 53 -3 41 -4 42 -5 9z"/>
<path d="M4037 2384 c-4 -4 -7 -17 -7 -30 0 -12 -11 -61 -25 -109 -14 -48 -24
-89 -23 -90 5 -4 119 13 125 19 7 6 -33 159 -49 191 -8 14 -17 23 -21 19z"/>
<path d="M3774 1624 c3 -8 2 -12 -4 -9 -5 3 -14 -4 -20 -15 -13 -25 11 -62 91
-141 61 -61 86 -75 92 -51 18 65 18 69 -17 95 -18 15 -37 23 -41 19 -3 -4 -5
-2 -3 4 3 11 -84 114 -97 114 -4 0 -4 -7 -1 -16z"/>
<path d="M4665 1538 c13 -132 35 -525 47 -819 11 -300 14 -316 43 -297 6 4 10
-7 10 -25 0 -29 4 -33 35 -37 19 -3 53 -14 75 -24 59 -27 175 -7 175 31 0 6
-21 33 -46 58 l-46 47 -42 -16 c-48 -18 -70 -20 -61 -6 3 6 -2 10 -12 10 -14
0 -15 2 -5 9 15 9 12 54 -58 786 -17 170 -30 318 -30 327 0 15 -9 18 -46 18
l-46 0 7 -62z"/>
<path d="M3674 1468 c-18 -40 -19 -72 -19 -554 l0 -511 53 -2 52 -2 0 39 c0
156 -54 1059 -64 1069 -1 2 -11 -16 -22 -39z"/>
<path d="M4335 422 c-32 -17 -53 -37 -59 -55 -15 -42 3 -52 97 -52 67 1 89 5
118 23 27 16 45 20 67 16 28 -6 33 -3 42 21 6 15 8 30 6 32 -3 3 -38 9 -78 14
-40 4 -89 13 -108 19 -19 5 -35 10 -35 10 0 0 -22 -13 -50 -28z"/>
</g>
</svg>
